<?xml version="1.0" standalone="no"?>
<!DOCTYPE svg PUBLIC "-//W3C//DTD SVG 20010904//EN"
 "http://www.w3.org/TR/2001/REC-SVG-20010904/DTD/svg10.dtd">
<svg version="1.0" xmlns="http://www.w3.org/2000/svg"
 width="36.000000pt" height="36.000000pt" viewBox="0 0 36.000000 36.000000"
 preserveAspectRatio="xMidYMid meet">

<g transform="translate(0.000000,36.000000) scale(0.100000,-0.100000)"
fill="#000000" stroke="none">
<path d="M64 346 c-12 -9 -24 -24 -27 -35 -4 -18 1 -20 47 -23 49 -3 51 -4 54
-35 l3 -32 -53 -3 -53 -3 0 -105 0 -105 47 -3 c26 -2 57 2 69 8 17 9 23 9 29
0 13 -22 81 -4 115 30 l30 30 0 143 0 142 -120 3 c-94 2 -125 -1 -141 -12z
m194 -137 c2 -65 0 -79 -19 -103 -19 -24 -26 -27 -78 -24 -53 3 -56 5 -59 31
-3 24 0 27 27 27 55 0 61 7 61 74 0 71 4 78 40 74 24 -3 25 -6 28 -79z"/>
</g>
</svg>
