<?xml version="1.0" standalone="no"?>
<!DOCTYPE svg PUBLIC "-//W3C//DTD SVG 20010904//EN"
 "http://www.w3.org/TR/2001/REC-SVG-20010904/DTD/svg10.dtd">
<svg version="1.0" xmlns="http://www.w3.org/2000/svg"
 width="1125.000000pt" height="1125.000000pt" viewBox="0 0 1125.000000 1125.000000"
 preserveAspectRatio="xMidYMid meet">
<metadata>
Created by potrace 1.14, written by Peter Selinger 2001-2017
</metadata>
<g transform="translate(0.000000,1125.000000) scale(0.100000,-0.100000)"
fill="#000000" stroke="none">
<path d="M3088 11245 c-2 -2 -32 -5 -68 -9 -163 -15 -334 -51 -487 -102 -662
-221 -1178 -728 -1413 -1389 -17 -49 -33 -98 -36 -109 -2 -10 -10 -42 -18 -70
-8 -28 -17 -64 -20 -80 -3 -16 -10 -52 -15 -80 -28 -141 -48 -459 -33 -518 4
-17 91 -18 1516 -20 1461 -3 1512 -4 1556 -22 43 -18 120 -74 148 -106 7 -8
28 -44 45 -80 l32 -65 1 -705 c1 -537 -2 -716 -12 -753 -31 -118 -126 -214
-246 -248 -33 -10 -340 -13 -1268 -14 -674 -1 -1241 -5 -1260 -9 -132 -26
-270 -103 -358 -202 -67 -74 -127 -196 -144 -294 -19 -101 -18 -5817 0 -5892
58 -234 234 -411 464 -465 43 -10 2362 -10 2453 0 252 27 600 132 767 230 26
15 50 27 53 27 17 0 183 107 281 181 141 106 286 245 385 367 23 28 45 52 48
52 3 0 6 -196 5 -435 l-1 -436 746 4 c410 2 773 6 806 10 33 3 78 9 100 12 22
3 59 7 83 10 77 9 117 15 142 20 14 3 50 9 80 15 289 53 671 187 954 335 80
42 305 176 331 197 6 4 47 34 91 66 79 55 100 71 228 177 157 127 409 398 552
592 63 85 204 298 204 308 0 4 8 19 19 33 32 46 157 301 206 422 77 189 167
489 190 630 3 19 8 42 10 50 2 8 7 33 10 55 3 23 7 51 10 64 2 13 7 49 11 80
3 31 9 65 12 76 4 11 8 1723 9 3805 3 3447 1 3790 -13 3840 -9 30 -20 59 -25
65 -5 5 -9 15 -9 22 0 8 -16 39 -35 69 -88 137 -201 222 -360 272 -45 13 -406
15 -3387 17 -1836 1 -3339 1 -3340 0z m4577 -2389 c168 -44 298 -182 323 -341
11 -70 9 -4064 -2 -4140 -62 -429 -200 -771 -441 -1094 -153 -205 -394 -425
-610 -558 -123 -75 -305 -151 -452 -187 -101 -25 -122 -29 -233 -43 -36 -4
-657 -8 -1380 -8 l-1315 1 -60 23 c-81 33 -163 115 -196 196 l-24 60 0 715 0
715 22 55 c33 81 101 153 181 192 l67 33 917 2 c662 1 933 5 975 13 183 38
341 159 426 327 23 45 68 183 65 202 0 3 0 871 1 1929 l1 1922 843 0 c667 0
852 -3 892 -14z"/>
<path d="M4275 4093 c-55 -5 -136 -25 -178 -44 -136 -61 -245 -193 -278 -336
-8 -38 -15 -503 -10 -721 l1 -32 593 0 c639 1 636 0 752 55 116 55 225 194
254 327 6 24 10 202 11 396 0 278 -2 352 -12 353 -35 2 -1107 4 -1133 2z"/>
</g>
</svg>
