<?xml version="1.0" standalone="no"?>
<!DOCTYPE svg PUBLIC "-//W3C//DTD SVG 20010904//EN"
 "http://www.w3.org/TR/2001/REC-SVG-20010904/DTD/svg10.dtd">
<svg version="1.0" xmlns="http://www.w3.org/2000/svg"
 width="927.000000pt" height="1125.000000pt" viewBox="0 0 927.000000 1125.000000"
 preserveAspectRatio="xMidYMid meet">

<g transform="translate(0.000000,1125.000000) scale(0.100000,-0.100000)"
fill="#000000" stroke="none">
<path d="M2080 11240 c-607 -44 -1190 -350 -1573 -825 -114 -141 -187 -257
-272 -430 -153 -311 -224 -615 -225 -957 l0 -158 1518 -2 1517 -3 57 -28 c74
-36 139 -102 175 -175 l28 -57 0 -730 0 -730 -33 -67 c-40 -81 -110 -148 -190
-180 l-57 -23 -1265 -5 c-1119 -5 -1270 -7 -1310 -21 -222 -78 -369 -232 -425
-447 -13 -53 -15 -375 -15 -2972 0 -3238 -6 -2962 68 -3105 51 -100 165 -211
265 -259 141 -68 93 -66 1322 -66 1168 0 1247 3 1464 46 504 101 944 364 1294
774 l47 55 0 -437 0 -438 703 0 c708 0 789 3 1072 41 553 74 1133 311 1592
650 151 111 266 211 408 354 487 487 818 1101 955 1773 70 345 64 -34 67 4141
4 4180 10 3813 -65 3961 -79 159 -247 283 -427 315 -68 12 -558 14 -3335 13
-1790 0 -3302 -4 -3360 -8z m4650 -2397 c111 -46 207 -142 253 -253 l22 -55 0
-2065 0 -2065 -22 -125 c-28 -159 -64 -297 -109 -419 -249 -672 -822 -1207
-1435 -1340 -189 -40 -260 -42 -1599 -39 l-1285 3 -57 27 c-79 37 -142 98
-181 177 l-32 66 0 725 0 725 32 66 c39 79 102 140 181 177 l57 27 950 5 c947
5 950 5 1008 27 102 39 176 85 240 148 73 74 118 146 155 247 l27 73 3 1948 2
1948 868 -3 867 -3 55 -22z"/>
</g>
</svg>
